<?xml version="1.0" standalone="no"?>
<!DOCTYPE svg PUBLIC "-//W3C//DTD SVG 20010904//EN"
 "http://www.w3.org/TR/2001/REC-SVG-20010904/DTD/svg10.dtd">
<svg version="1.0" xmlns="http://www.w3.org/2000/svg"
 width="1024.000000pt" height="1024.000000pt" viewBox="0 0 1024.000000 1024.000000"
 preserveAspectRatio="xMidYMid meet">

<g transform="translate(0.000000,1024.000000) scale(0.100000,-0.100000)"
fill="#000000" stroke="none">
<path d="M785 6571 c-50 -22 -91 -69 -105 -119 -14 -53 -14 -2333 1 -2402 13
-61 49 -106 104 -131 37 -17 79 -19 628 -19 l589 0 86 -32 c84 -31 92 -32 247
-33 150 0 165 2 240 28 280 98 464 333 497 634 11 101 0 216 -28 295 -11 33
-14 138 -14 592 l0 551 -327 327 -328 328 -775 0 c-730 0 -777 -1 -815 -19z
m1495 -353 c0 -269 7 -304 66 -345 55 -38 90 -43 320 -43 l224 0 0 -376 0
-377 -49 46 c-73 68 -160 121 -259 157 -76 28 -103 33 -212 38 -106 4 -139 1
-208 -16 -253 -64 -445 -244 -529 -497 -24 -73 -27 -94 -27 -235 0 -141 2
-162 26 -232 33 -98 85 -191 144 -257 l46 -51 -480 0 c-470 0 -480 0 -506 21
l-26 20 0 1165 c0 806 3 1171 11 1185 6 11 20 24 32 29 12 5 338 9 725 9 l702
1 0 -242z m325 -58 l190 -190 -173 0 c-227 0 -212 -15 -212 210 0 94 1 170 3
170 1 0 88 -85 192 -190z m-121 -990 c111 -28 189 -74 277 -160 194 -193 239
-459 119 -709 -76 -157 -235 -287 -402 -326 -322 -76 -650 125 -733 450 -31
124 -11 305 48 422 133 262 415 394 691 323z"/>
<path d="M1095 6055 c-30 -29 -32 -55 -6 -86 l19 -24 443 -3 c472 -3 492 -1
510 45 12 32 -5 71 -36 83 -16 6 -202 10 -466 10 l-440 0 -24 -25z"/>
<path d="M1113 5690 c-46 -19 -55 -69 -18 -105 l24 -25 731 0 c717 0 730 0
750 20 29 29 26 74 -6 99 -26 21 -33 21 -743 20 -394 0 -726 -4 -738 -9z"/>
<path d="M1095 5295 c-30 -29 -32 -55 -6 -86 l19 -24 301 0 c327 0 322 -1 336
57 5 21 1 33 -19 52 l-25 26 -291 0 -291 0 -24 -25z"/>
<path d="M2124 4902 c-31 -20 -34 -55 -34 -342 l0 -292 29 -29 c16 -16 37 -29
46 -29 24 0 526 277 548 302 24 28 21 72 -5 101 -13 14 -132 86 -265 161 -238
133 -284 152 -319 128z"/>
<path d="M9239 5757 c-103 -70 -57 -217 69 -217 107 0 164 92 112 178 -37 61
-122 79 -181 39z"/>
<path d="M5240 5190 l0 -580 100 0 100 0 -2 577 -3 577 -97 3 -98 3 0 -580z"/>
<path d="M5630 5190 l0 -580 95 0 95 0 0 580 0 580 -95 0 -95 0 0 -580z"/>
<path d="M6900 5190 l0 -580 95 0 95 0 0 57 0 58 29 -36 c16 -19 53 -48 82
-64 50 -28 62 -30 149 -29 110 1 178 25 249 90 193 174 166 553 -49 689 -128
81 -316 71 -409 -21 -24 -24 -45 -44 -47 -44 -2 0 -4 104 -4 230 l0 230 -95 0
-95 0 0 -580z m528 34 c132 -78 149 -299 30 -399 -94 -79 -221 -72 -305 16
-75 79 -84 225 -20 319 65 97 192 124 295 64z"/>
<path d="M3794 5720 c-140 -25 -250 -119 -278 -235 -15 -59 -7 -164 14 -213
45 -102 112 -144 307 -196 71 -18 143 -41 160 -50 101 -52 98 -190 -6 -233
-43 -18 -141 -20 -184 -2 -45 17 -95 66 -108 106 l-11 33 -108 0 -108 0 9 -42
c24 -110 97 -201 196 -248 56 -26 161 -50 223 -50 115 0 255 52 307 115 82 95
103 249 49 358 -47 97 -96 127 -307 187 -147 41 -178 56 -212 102 -24 32 -25
100 -3 134 68 103 292 67 322 -52 6 -23 8 -24 110 -24 57 0 104 3 104 7 0 27
-36 125 -58 158 -78 113 -254 174 -418 145z"/>
<path d="M6287 5429 c-118 -17 -200 -73 -243 -164 -36 -76 -34 -81 37 -89 111
-11 122 -9 139 26 25 54 62 73 138 73 107 0 162 -48 162 -143 l0 -39 -112 -7
c-266 -17 -359 -53 -409 -161 -39 -84 -19 -175 56 -252 40 -41 62 -55 109 -68
115 -34 247 -8 329 65 l37 32 0 -46 0 -46 97 0 96 0 -6 305 c-6 280 -8 308
-27 353 -39 90 -114 141 -240 161 -73 12 -81 12 -163 0z m233 -507 c0 -101
-87 -177 -202 -176 -71 1 -115 19 -133 55 -47 91 16 143 191 158 158 14 144
18 144 -37z"/>
<path d="M8587 5429 c-118 -17 -194 -69 -238 -164 -16 -33 -29 -65 -29 -71 0
-11 88 -24 154 -24 25 0 34 7 47 32 22 45 57 67 117 75 37 4 64 1 97 -11 63
-24 85 -56 85 -121 l0 -53 -112 -7 c-227 -13 -314 -38 -372 -107 -82 -96 -68
-229 33 -321 104 -94 330 -87 426 13 16 17 31 30 34 30 4 0 5 -20 3 -45 l-4
-45 96 0 96 0 0 288 c0 328 -6 365 -67 433 -49 54 -119 88 -206 99 -82 11 -81
11 -160 -1z m239 -511 c-11 -82 -35 -117 -106 -154 -70 -35 -203 -15 -230 35
-28 53 3 120 63 140 30 10 166 26 246 30 l34 1 -7 -52z"/>
<path d="M4325 5403 c3 -10 74 -197 157 -416 l151 -397 -19 -43 c-45 -104 -85
-137 -163 -137 l-41 0 0 -80 c0 -77 1 -80 26 -86 70 -18 209 19 262 69 47 43
79 118 262 607 l186 495 -95 3 c-52 1 -100 1 -107 -2 -6 -2 -56 -138 -110
-300 l-98 -296 -101 297 -101 298 -108 3 c-101 2 -108 1 -101 -15z"/>
<path d="M9210 5015 l0 -405 100 0 100 0 0 405 0 405 -100 0 -100 0 0 -405z"/>
<path d="M7932 4850 c-57 -35 -77 -111 -45 -177 25 -53 66 -75 132 -70 47 3
59 9 88 40 29 33 33 43 33 93 0 52 -3 59 -39 95 -34 35 -44 39 -87 39 -31 0
-61 -7 -82 -20z"/>
</g>
</svg>
